<?xml version="1.0" encoding="utf-8"?>
<!-- Generator: Adobe Illustrator 27.7.0, SVG Export Plug-In . SVG Version: 6.00 Build 0)  -->
<svg version="1.1" id="Layer_1" xmlns="http://www.w3.org/2000/svg" xmlns:xlink="http://www.w3.org/1999/xlink" x="0px" y="0px"
	 viewBox="0 0 600 600" style="enable-background:new 0 0 600 600;" xml:space="preserve">
<style type="text/css">
	.st0{fill:#FFFFFF;}
</style>
<g>
	<path class="st0" d="M300.9,322.4c-9,0-17.7-2.7-25-7.9c-0.1,0-0.1-0.1-0.2-0.1L117.5,195.8v191.8l77.9-96.1
		c2.6-3.3,6.6-5.2,10.8-5.2c3.2,0,6.2,1.1,8.7,3.1l0.2,0.2c2.8,2.4,4.6,5.7,4.9,9.4c0.3,3.7-0.8,7.2-3.1,10l-81.7,100.9h331.3
		c0,0-81.8-101-81.9-101.1c-4.7-5.9-3.8-14.6,2.2-19.4c2.5-2,5.5-3.1,8.7-3.1c4.2,0,8.2,1.9,10.8,5.2l77.9,96.1V195.8
		c0,0-158.3,118.7-158.4,118.7C318.6,319.7,309.9,322.4,300.9,322.4z"/>
	<path class="st0" d="M300.3,294.6l0.2,0c3.8,0,7-1.2,8.6-2.4l149.6-112.3H142.5L292,292.1C294.4,293.7,297.3,294.6,300.3,294.6z"/>
	<path class="st0" d="M300,0C134.3,0,0,134.3,0,300s134.3,300,300,300s300-134.3,300-300S465.7,0,300,0z M511.5,410
		c-0.1,14.8-12.2,26.9-27,27c0,0,0,0,0,0h-368c-14.8-0.1-26.9-12.2-27-27V179c0-14.9,12.1-27,27-27.1h368c14.8,0.1,26.9,12.2,27,27
		V410z"/>
</g>
</svg>
