<?xml version="1.0" encoding="UTF-8"?><svg id="Layer_1" xmlns="http://www.w3.org/2000/svg" viewBox="0 0 500.1 500.1"><defs><style>.cls-1{fill:#fff;}</style></defs><path class="cls-1" d="m240.2,0c-.2,0-.5.2-.7.2,3.5-.1,7-.2,10.5-.2h-9.8Z"/><path class="cls-1" d="m259.8,0h-9.8c3.6,0,7.1,0,10.6.2-.2,0-.5-.1-.8-.2Z"/><path class="cls-1" d="m259.8,500.1c.3-.1.5-.2.8-.2-3.5,0-7,.2-10.6.2h9.8Z"/><path class="cls-1" d="m240.2,500.1h9.8c-3.6,0-7.1-.2-10.7-.3.3,0,.6.2.9.3Z"/><path class="cls-1" d="m0,240.2v9.8c0-3.6,0-7.1.2-10.6,0,.2-.1.5-.2.8Z"/><path class="cls-1" d="m.2,260.5c-.1-3.5-.2-7-.2-10.5v9.8c0,.2.2.5.2.7Z"/><path class="cls-1" d="m500.1,259.8c0-6.5,0-13.1,0-19.6,0-.3-.2-.5-.2-.8.1,3.5.2,7,.2,10.6s0,7.1-.2,10.7c.1-.3.2-.6.3-.9Z"/><path class="cls-1" d="m250.3,22.5C126,21.2,25.1,123,22.3,244.2c-3,129.8,101.8,231.2,222.5,233.6,129.2,2.6,230.8-101.9,233-223.1,2.3-129.2-103.3-233.5-227.5-232.2Zm66.6,127.6c-.2,3.1-2,3.1-4,3.1h-31.4c-13.8,0-21.4,7.5-22,21.3-.3,7.9-.4,15.8-.7,23.6-.2,3.6,1.3,4.8,4.8,4.7,15,0,30,0,44.9,0h5.6c-1.8,11.4-3.4,22.1-5.1,32.8-.5,3.1-1,6.2-1.3,9.3-.4,3.2-1.6,4.9-5.4,4.8-12.6-.3-25.3,0-38,0s-5.4,0-5.4,5.4v132.7q0,5.8-5.8,5.8h-34.3q-5.9,0-5.9-5.7v-132.3q0-5.9-6-5.9c-6.5,0-13.1,0-19.6,0-2.9.1-3.8-1-3.8-3.8,0-13.1,0-26.1,0-39.2,0-3.2,1.3-3.9,4.2-3.8,6.9,0,13.9-.1,20.8,0,3.3.1,4.5-1.2,4.5-4.6-.2-11-.3-22.1,0-33.1.3-10.2,1.8-20.3,5.6-29.9,6.5-16.5,18.8-26.4,36.2-27.7,19.6-1.5,39.4-.9,59.1-1,1,0,2.7,1.8,2.8,2.8.2,13.6.1,27.2.1,40.8Z"/></svg>