<?xml version="1.0" encoding="UTF-8"?><svg id="Layer_1" xmlns="http://www.w3.org/2000/svg" viewBox="0 0 455.4 455.6"><defs><style>.cls-1{fill:#fff;}</style></defs><path class="cls-1" d="m233.2,0C103.8-2.7,2.5,101.8,0,222.6c-2.6,129.3,102,230.8,223.1,233,129.1,2.3,233.7-103.4,232.2-227.8C456.4,103.6,354.6,2.7,233.2,0Zm167.4,227.8v67c0,46.7-33.1,91.7-83.5,103.2-7.7,1.7-15.8,2.5-23.8,2.5-44.2.2-88.4,0-132.7,0-48.4,0-94.2-35.6-103.9-87.7-1.2-6.3-1.7-12.9-1.7-19.4-.2-44.3,0-88.5,0-132.8s35.4-94.2,87.5-104c6.3-1.2,12.9-1.7,19.4-1.7,44.4-.2,88.8,0,133.2,0s94.2,35.5,103.8,87.8c1.2,6.3,1.6,12.9,1.7,19.4.2,16.4.1,32.9.1,49.3,0,5.4,0,10.9,0,16.4Z"/><path class="cls-1" d="m367.2,145.4c-8.4-35.3-39-59.2-75.4-59.2s-84.1-.1-126.2,0c-3.9,0-7.9.3-11.8.7-38.5,4.4-67.8,37.1-67.8,75.8-.1,43.5-.1,86.9,0,130.3,0,4.2.3,8.5,1.1,12.6,7.3,38.4,38.3,64,77.3,64h95.6c10.8,0,21.5,0,32.3,0,4.2-.1,8.5-.3,12.6-1,37-5.9,64.6-38.2,64.6-75.6s0-86.8-.2-130.2c0-5.8-.8-11.7-2.1-17.3Zm-53.2,84.5c-1,45.9-39.3,85.4-88.6,84.2-45.7-1.1-85.2-39.3-83.9-88.8,1.2-45.7,39-84,86.5-83.7,47.2-.2,87.1,39,86,88.3Zm6.9-84.2c-5.5-.2-11-5.7-11-11.2s5.1-10.8,11-10.9c6.3,0,11.1,4.6,11.1,10.9s-5.2,11.4-11.1,11.2Z"/><path class="cls-1" d="m228.1,173c-30.4-.2-54.8,23.1-55.1,54.4-.2,30.9,23.6,55.1,54.7,55.2,30.8,0,54.1-23.8,55.1-54.6-.8-30.6-23.5-54.8-54.7-55Z"/></svg>