<?xml version="1.0" encoding="utf-8"?>
<!-- Generator: Adobe Illustrator 27.7.0, SVG Export Plug-In . SVG Version: 6.00 Build 0)  -->
<svg version="1.1" id="Layer_1" xmlns="http://www.w3.org/2000/svg" xmlns:xlink="http://www.w3.org/1999/xlink" x="0px" y="0px"
	 viewBox="0 0 600 600" style="enable-background:new 0 0 600 600;" xml:space="preserve">
<style type="text/css">
	.st0{fill:#FFFFFF;}
</style>
<g>
	<path class="st0" d="M300,0C134.3,0,0,134.3,0,300s134.3,300,300,300s300-134.3,300-300S465.7,0,300,0z M328.9,195.6
		c37.8,0,68.5,30.7,68.5,68.5c0,6.2-5,11.3-11.2,11.4c0,0-0.1,0-0.1,0c-6.3,0-11.4-5.1-11.4-11.4c0-25.2-20.6-45.8-45.8-45.8
		c-6.3-0.1-11.3-5.2-11.3-11.4C317.6,200.7,322.7,195.6,328.9,195.6z M317.6,168.8c0-6.2,5.1-11.3,11.3-11.3
		c58.7,0.1,106.6,47.9,106.7,106.6c0,6.3-5.1,11.4-11.4,11.4c0,0-0.1,0-0.1,0c-6.2-0.1-11.2-5.2-11.2-11.4
		c-0.1-46.3-37.7-83.9-84-83.9C322.6,180.1,317.6,175,317.6,168.8z M473.4,462c0.1,26.6-21.6,48.4-48.2,48.5c0,0,0,0,0,0
		c0,0-0.3,0-0.4,0l-4-0.2c-0.1,0-0.2,0-0.3,0c-58.5-6.4-115.5-26.6-164.9-58.5c-45.7-29.1-85.4-68.7-114.6-114.4
		c-32-49.5-52.2-106.6-58.6-165.2c-2.4-26.6,17.3-50.2,43.8-52.6c0.1,0,0.1,0,0.2,0l3.9-0.2c0.1,0,0.2,0,0.3,0l55.8,0
		c24,0,44.6,17.9,48,41.6c2.2,16.9,6.4,33.6,12.3,49.6c6.6,17.6,2.4,37.6-10.8,51l-17.4,17.3c23.6,38.7,56.3,71.4,95,94.9l17.3-17.3
		c9.1-9,21.2-14,34-14c5.9,0,11.6,1,17.1,3.1c15.9,5.9,32.6,10,49.5,12.2c24.3,3.4,42.2,24.4,41.8,48.9V462z M462.3,275.5
		C462.3,275.5,462.2,275.5,462.3,275.5c-6.3-0.1-11.3-5.2-11.3-11.4c0-67.3-54.8-122-122.1-122c-6.3-0.1-11.3-5.2-11.3-11.4
		c0-6.2,5.1-11.3,11.3-11.3c79.8,0,144.8,64.9,144.8,144.7C473.7,270.4,468.6,275.5,462.3,275.5z"/>
</g>
</svg>
