<?xml version="1.0" encoding="UTF-8"?><svg id="Layer_1" xmlns="http://www.w3.org/2000/svg" viewBox="0 0 793.4 512.2"><defs><style>.cls-1{fill:#f6ad6d;}.cls-2{fill:#fff;}.cls-3{fill:#b73f27;}.cls-4{fill:#bb212f;}.cls-5{fill:#460025;}.cls-6{fill:#561c0e;}.cls-7{fill:#7d001b;}</style></defs><path class="cls-1" d="m453.2,403.6c7.9-1.9,25.1-7.2,73.7-8s99.4,1.5,109.4,8,17.2,21.9,4.8,40.4c-12.4,18.5-68.9,35.7-112.9,36s-91.9-15.2-101.7-31c-9.9-15.8,5.1-40.2,26.8-45.3Z"/><path class="cls-3" d="m638,401.2c-7.2-3.4-13.7-2.7-15.6-2.5-1.8.2-1.5,1.4-.2,1.4s9.7.9,14.5,4c4.8,3.1,11.3,10.2,10.8,19-.3,6.7-5.9,20.7-22.8,30.2-16.9,9.5-49.2,18.6-79.4,20.7-30.2,2.1-59.5-1.3-84-9.6-24.5-8.3-30.3-13.1-33.7-23.2-4.5-13.4,9.1-26.1,16.2-30.6,7.1-4.5,11.8-7.1,13.1-8,1.4-1,2.6-3.9-3.1-1.4-3.7,1.6-16.5,6.3-26.1,16.6-14.1,15.1-10.5,29.1.2,40.7,10.6,11.6,37.8,22,66.9,25.7,29.2,3.7,60.7,3.9,104.1-9,43.3-12.9,52.8-34.9,53.6-48.8.8-13.9-7.2-21.8-14.5-25.1Z"/><path class="cls-3" d="m609.6,419c0-1,.3-3.8.5-6.6.3-3.2.5-6.6.6-7.4,0-.2,0-.2,0-.2.1-.1.9-.1,1.3-.1h18.6c1.1,0,1.7.5,2.8,1.5s6,8.3,6.7,9.8c.1.3.3.6.4.9,0,0,0,.2.1.3-4.3.2-28.5,1.6-29.9,1.7-.3,0-.6,0-.9,0s-.2,0-.2,0Z"/><path class="cls-3" d="m582.9,420.6c0,0-.2,0-.2,0,0-.2,0-.4.1-.6,0-.3.1-.6.2-1,0-.5.1-.7.1-.7,0,0,0,0,0,0,0,0,.2,0,.3,0h.3c1.3-.4,3.7-2.7,5.6-5.4,1.9-2.7,2.8-5.5,3.1-7.4,0-.2.1-.4.2-.5,1.2,0,8.8-.2,10-.3h.2c.2,0,.3,0,.4,0,0,0-.2,1.7-.4,3.4-.4,3.5-1.1,8.8-1.3,10.1-.1.8-.2,1.1-.2,1.3,0,0-.7,0-.7,0-12.6.8-16.4,1-17.4,1h-.1Z"/><path class="cls-3" d="m609.1,439c-.8,0-1.1-.1-1.1-.1,0,0,0,0,0-.3.1-1.1.9-12.2,1-13.6,0-.4.2-.6.3-.7h0c1,0,31.4-2.1,31.7-2.1,0,0,.1,0,.1,0s0,0,0,0c0,.2,0,.7,0,1,0,1.4,0,5.8-1,8.7-1.1,3.4-2.2,4.3-2.5,4.3-1.3.2-27.3,2.8-28.7,2.8Z"/><path class="cls-3" d="m567.9,441.7c-.2,0-.3,0-.3,0h0s0-.2,0-.9c0-.7.6-3.7,1-6.3.6-3.2.9-5.2.9-5.8,0-.9.3-1.2,1.1-1.3,1.2-.2,27.8-2.2,29.3-2.3h0c.3,0,.4,0,.5.1,0,0,0,0,0,.3,0,.8-.5,4.8-.9,8.2-.3,2.3-.5,4.3-.5,4.7,0,.4,0,.6-.1.6h0s-.1,0-.5,0c-.7,0-7.5.6-14.8,1.3-7,.6-14.9,1.3-15.6,1.4h0Z"/><path class="cls-3" d="m523.6,443.7c-.5,0-.9-.1-1.1-.3-.2-.2-.2-.6-.1-.8,0-.7.5-2.4.8-3.9.4-1.7.6-2.8.7-3.4.2,0,.5,0,.8,0,.2,0,.5,0,.7,0,.6,0,3.4.1,6.6.1s11.1,0,14.9-.7c5.9-.9,11.8-2.2,13.2-2.6.4-.1.8-.3,1.2-.4,0,0,.1,0,.2,0-.2,1.5-.7,5-1,7-.2,1.1-.3,2-.3,2.2v.2c0,.3,0,.7-.2.8,0,0-.2.1-1,.2-1.8.2-34,1.5-35.4,1.5Z"/><path class="cls-3" d="m475.5,443.9c-.7,0-.9-.2-.9-.2,0,0,0-.2,0-.7l.6-2.2c1-4,2.9-11.5,3.2-12.8,0-.4.2-1.1,1.8-1.1s5.5,1.3,8.2,2.3c7.5,3,21.3,4.6,25.3,5h.4c.9.1,1.9.2,2.3.4,0,0,0,.1,0,.2-.3,1.4-1.2,5.6-1.5,7.5,0,.5-.2,1.2-.4,1.4,0,0-.3,0-1.1,0h-37.9Z"/><path class="cls-3" d="m463.7,443.7c-2.1,0-26.2-.5-27.9-.6-1-.4-3.7-6.4-2.1-12.2,1.4-5,2.5-5,3.4-5s.4,0,.6,0h.3c2.1,0,27,.8,29.2.8s1.2.2,1.2.3c0,.1.3.5,0,2-.4,2-1.4,6.7-2.3,11.3l-.3,1.3q-.4,2.1-2.2,2.1Z"/><path class="cls-3" d="m467.3,421.6c-1.6,0-26.3-.6-28-.6.6-.6,1.6-1.3,2.3-1.9.7-.6,1.5-1.2,2.2-1.8,6.3-5.7,8-6.3,8.4-6.4.1,0,.4,0,.7,0,2.1,0,7.3.2,11.5.3,2.7,0,4.9.2,5.5.2s1.1,0,1.3.1c0,0,0,.1,0,.3-.2,1.5-1.4,8.4-1.7,9.1-.2.5-.2.7-1.8.7h-.3Z"/><path class="cls-3" d="m508.4,470.8c0,0-.2,0-.3,0-9.2-.6-29.3-4.8-35.3-6.5h-.1c-2-.6-2.3-.8-2.1-1.9.4-2,2.5-10.8,2.9-12,.2-.5.2-.6,1.7-.6s.6,0,.9,0c2.5.1,33,1,35.8,1h.3c.2,0,.3,0,.4,0,0,.5-.3,1.7-.5,3.3-.8,4.6-2.4,14.3-2.6,15.2v.3c-.3,1-.3,1.1-1.1,1.1Z"/><path class="cls-3" d="m528.2,471.3c-5.2,0-9.2,0-9.8,0-.9,0-1.1-.2-1.1-.2h0s0,0,0-.4c.1-.8,1.9-10.9,2.9-16.3l.6-3.3c0-.3.1-.6,1.2-.6h.4c2.5,0,33.9-1.1,36.1-1.3.1,0,.3,0,.4,0s.2,0,.3,0c0,.2,0,.8,0,1.2v.3c-.2,1.6-1.9,13.3-2.2,15.2,0,.4-.1.8-.2,1.2-.2,1.9-.4,2.6-1.2,2.7-.2,0-.6,0-1,.1-2.5.4-8.2,1.2-16.9,1.4-2.9,0-6.1,0-9.4,0Z"/><path class="cls-3" d="m565.1,468.1c-.4,0-.6,0-.6,0,0,0,0-.2,0-.5.1-1.4,1.7-17.3,1.9-18.8,0-.3,0-.9,1.7-.9,1,0,11.1-.9,19.2-1.7,4.8-.4,8.9-.8,9.5-.9.4,0,.7,0,1,0s.5,0,.5,0c0,0,0,.2,0,.6,0,1.3-.6,10.5-1.1,14.3-.1,1.1-.4,1.2-1.2,1.5h-.1c-2.6.8-7.7,2.3-13.2,3.5-7.8,1.7-16.4,2.9-17.1,2.9-.2,0-.4,0-.6,0h0Z"/><path class="cls-3" d="m606.7,457.9c0-1.2.3-4.6.5-7.6.1-2.3.3-4.3.3-5,0-.6.1-.7.8-.8.6,0,6-.7,12.3-1.4,6.9-.8,14.7-1.7,15.6-1.7,0,0,0,0,0,0,0,0-.2.2-.3.4-1.2,1.2-7.9,6.4-13.2,9.4-4.5,2.6-8.7,4.2-11.5,5.2-.6.2-1.1.4-1.5.6-1.4.6-2.5.9-3.1.9Z"/><path class="cls-3" d="m460.6,460.1c-.3,0-.7,0-1-.2-2.5-.7-9.4-3-14.2-5.5-4.2-2.1-6.6-3.8-7.8-5.3-.2-.2-.3-.4-.3-.5.2,0,.6-.1,1.4-.1s.4,0,.7,0c.5,0,3.5,0,7.4.1,6.4,0,15.3.2,16.3.3.3,0,.9,0,1.2.1,0,0,0,.2,0,.4-.1,1.3-1.7,7.5-2.2,9.2-.3,1-.7,1.2-1.4,1.2Z"/><path class="cls-2" d="m533.8,436.8c-27.3,0-50.4-8.3-50.7-8.4-5.7-2.1-10.2-8.3-15.9-16.1l-.8-1.2-1.2-1.6c-5.1-6.9-12-16.5-27.5-47.6-8.7-17.5-20.3-43.1-21.4-62.9-.7-13.5,4.7-25.5,14.8-32.7,9.5-6.8,26.3-9.7,28.3-9.7s1.1,0,1.6,0c3.5-1.1,7.6-2.1,12.1-3,2.8-1.2,6.2-1.6,9.4-2,1.2-.1,2.3-.3,3.3-.4.7-.1,1.4-.2,2.1-.4,2.1-.4,3.8-.7,5.4-.7s2,.1,2.8.4c2.2-.2,4.5-.4,6.9-.6.9-.6,1.9-.9,2.9-1h1c2.5-.3,5.1-.6,6.6-.6s.7,0,.9,0c.9,0,1.7.3,2.5.6,2.3-.1,4.5-.2,6.7-.3.6-.2,1.3-.3,1.9-.4.9,0,4,0,6.3,0s3.9,0,4.2,0c.1,0,.2,0,.3,0,1.7,0,3.4,0,5.2,0,23.5,0,41.3,1.9,52.9,5.7,11,3.6,19.5,7,25.5,10.2,1.8,0,4.4.6,7.3,2.6,1.3.9,2.4,1.9,3.4,3,2-1.2,4.3-2.5,6.8-3.8,8.6-4.5,18.9-9.1,29.3-9.1s6.9.5,10,1.5c15.4,5,23.3,20.2,18.5,35.5-4,12.7-18.8,42.8-34.1,57.5-14.8,14.2-29.9,25.5-38.9,32.2l-.5.4c-8.4,6.2-16.9,13.1-20.3,16.2-1.7,1.5-4.5,4.1-8,7.4-1.3,3.1-3.9,8.3-8.5,12.9-4.6,4.6-18.4,15.3-48.1,16.1-1.1,0-2.2,0-3.3,0h0Z"/><path class="cls-5" d="m676.2,270c-3-1.3-6.2-1.9-9.6-1.9s-7.1.6-10.9,1.9c-8.9,3-13.7,6-18.8,9.3-3.5,2.3-5.7,4.1-6.6,5,.5,1.9.6,4.3.4,7.6,3.7-3.9,11.1-10.3,21.5-13.2,4.2-1.1,8-1.7,11.3-1.7,7.9,0,13.2,3.3,15.2,9.3,2.5,7.8.7,15.5-6.3,26.4-6.7,10.6-13.6,21.5-22,30.9l-1.1,1.2c-6,6.7-11.3,12.6-17.1,17.7,8.4-6.6,15.6-12.7,20.9-17.8,9.4-9.1,18.4-22.8,23.2-31.9,6-11.3,9.5-21.5,9.7-28,.2-7-4.8-12.8-9.8-14.9Z"/><path class="cls-5" d="m623.6,296.7c.6-3.4.9-7.6,1-10.7-.8,1.3-2,2.9-4,5.1-4.1,4.6-17.5,14.1-42.2,20.5-20.4,5.3-49.1,8.7-73.1,8.7s-5.9,0-8.6-.2c-12-.5-25.2-2.3-36.3-5.1-8.6-2.1-19.9-5.8-24.9-11.1-7.6-8.3-7.1-17.1-4-22.6.6-1,1.1-1.9,1.5-2.7-1.7,2.1-3.6,5-4.5,8.5-1.8,6.8-1,16.3,2.1,26.1,3.6,11.3,16.4,40.4,22.9,53.2,6.5,12.7,26,42.7,29.6,47.5,1.2,1.6,7.1,4.4,17.5,7.1,9.9,2.5,20.6,4,28.7,4s.5,0,.8,0c18-.2,41.9-6.4,46.6-12.1,4.6-5.5,9-14.9,12.6-22.4l.9-1.8c3.4-7.2,12.6-26.2,19.8-46.9,7.2-20.5,12.2-39,13.4-45.1Z"/><path class="cls-2" d="m462.3,264.3c.5,2.3-8.1,3.6-13.7,7.2-3.5,2.3-10.6,7.2-12.9,13.7-2.7,7.5,1,15.4,9,19.1,14.6,6.7,35.4,10.3,61.9,10.4h1c35.7,0,79.8-11,95.7-18.9,18.5-9.2,18.3-15.8,18.2-16.5-.3-2.3-1.4-4.1-3-4.8-1.3-.6-1.6-1.6-1.4-2.4.2-.8.8-1.4,1.8-1.6-4.5-2.7-12.4-6.2-25.9-10.6-13.7-4.4-35.6-5.7-56.9-5.4,1.1.4,1.5,2.7,0,2.6-1.7-.1-8.5.1-9.6,0-.9,0-1.1-1.7-.7-2.4-3.6.1-7.1.3-10.4.5.3.9,0,2.1-.8,2.1-1.3-.1-6.3.6-7.6.6-.8,0-.9-1.2-.7-2.1-3.9.3-7.6.6-11,.9.5,1.1-1.1,4-4.5,4.4-3.5.4-12.7,2.1-13.6,2.5-1,.3-4-3.1-1.9-4.2,0,0,0,0,0,0-6.2,1.2-10.6,2.4-13.7,3.5,0,0,.1,0,.2.1.4.3.5.8.6,1.3Z"/><path class="cls-5" d="m534.9,277.6c1,0,2,0,3,0-.6,0-1.3,0-1.9,0-.4,0-.7,0-1.1,0Z"/><path class="cls-5" d="m623.6,296.7c.6-3.4.9-7.6,1-10.7-.8,1.3-2,2.9-4,5.1-4.1,4.6-17.5,14.1-42.2,20.5-20.4,5.3-49.1,8.7-73.1,8.7s-5.9,0-8.6-.2c-12-.5-25.2-2.3-36.3-5.1-8.6-2.1-19.9-5.8-24.9-11.1-7.6-8.3-7.1-17.1-4-22.6.6-1,1.1-1.9,1.5-2.7-1.7,2.1-3.6,5-4.5,8.5-1.8,6.8-1,16.3,2.1,26.1,3.6,11.3,16.4,40.4,22.9,53.2,6.5,12.7,26,42.7,29.6,47.5,1.2,1.6,7.1,4.4,17.5,7.1,9.9,2.5,20.6,4,28.7,4s.5,0,.8,0c18-.2,41.9-6.4,46.6-12.1,4.6-5.5,9-14.9,12.6-22.4l.9-1.8c3.4-7.2,12.6-26.2,19.8-46.9,7.2-20.5,12.2-39,13.4-45.1Z"/><path class="cls-5" d="m528.2,277.9c1.5,0,3-.2,4.5-.2-2.3,0-4.3.2-5.7.3.4,0,.8,0,1.2,0Z"/><path class="cls-5" d="m541.9,277.4c-.8,0-1.6,0-2.5,0,.8,0,1.7,0,2.5,0Z"/><path class="cls-5" d="m676.2,270c-3-1.3-6.2-1.9-9.6-1.9s-7.1.6-10.9,1.9c-8.9,3-13.7,6-18.8,9.3-3.5,2.3-5.7,4.1-6.6,5,.5,1.9.6,4.3.4,7.6,3.7-3.9,11.1-10.3,21.5-13.2,4.2-1.1,8-1.7,11.3-1.7,7.9,0,13.2,3.3,15.2,9.3,2.5,7.8.7,15.5-6.3,26.4-6.7,10.6-13.6,21.5-22,30.9l-1.1,1.2c-6,6.7-11.3,12.6-17.1,17.7,8.4-6.6,15.6-12.7,20.9-17.8,9.4-9.1,18.4-22.8,23.2-31.9,6-11.3,9.5-21.5,9.7-28,.2-7-4.8-12.8-9.8-14.9Z"/><path class="cls-6" d="m444.7,304.3c14.6,6.7,35.4,10.3,61.9,10.4h1c35.7,0,79.8-11,95.7-18.9,7.8-3.9,12.3-7.3,14.8-10-6.4-1.9-30.4-8.1-67.5-8.4-.4.1-1,.2-1.7.2-1.5-.1-4-.2-7.1-.1-.8,0-1.7,0-2.5,0-.5,0-1,0-1.5,0-1,0-2,0-3,0-.8,0-1.6,0-2.3,0-1.5,0-3,.1-4.5.2-.4,0-.8,0-1.2,0-1,0-1.7.1-2,.2-.2,0-.4,0-.6,0-9.3.6-18,1.6-26,2.9-2.3.5-6.9,1.3-7.7,1.5-.3,0-.5,0-.7,0-6.3,1.2-12.1,2.5-17.5,3.9,1.9-.1,3.3,0,2.4.6-1.6,1-15.5,3.6-18.4,5.1-1.8.9-3.8.9-4.5.5-7,2.4-11.9,4.6-14.6,5.8,1.7,2.5,4.2,4.6,7.3,6Z"/><path class="cls-7" d="m452,292.5c.6.4,2.7.4,4.5-.5,2.9-1.5,16.8-4.1,18.4-5.1.9-.6-.4-.7-2.4-.6-1.4,0-3.2.3-4.5.6-3.2.6-11,2.6-15,4.3-1.2.5-1.3.9-.9,1.2Z"/><path class="cls-7" d="m489.9,282.5c.2,0,.4.1.7,0,.8-.2,5.4-1,7.7-1.5.4,0,.7-.2.9-.2,1.7-.5,1.4-1,0-.9-1.4.1-7.5,1.3-8.7,1.5-1.2.2-1.1.9-.7,1.1Z"/><path class="cls-7" d="m524.3,278.2c.2,0,.4,0,.6,0,.4,0,1.1-.1,2-.2,1.4,0,3.4-.2,5.7-.3.8,0,1.5,0,2.3,0,.3,0,.7,0,1.1,0,.7,0,1.3,0,1.9,0,.5,0,1,0,1.5,0,.9,0,1.7,0,2.5,0,3.1,0,5.6,0,7.1.1.7,0,1.3,0,1.7-.2.9-.3.9-1-.4-1.1-1.8-.1-7.9-.8-12.6-.5s-10.7.8-12.8,1.1c-1.6.2-1.4,1.1-.6,1.4Z"/><path class="cls-7" d="m675.2,264.3c-2.6-.8-5.3-1.2-8.2-1.2-9.1,0-18.5,4.3-26.5,8.4-6.2,3.2-9.6,5.6-11.3,7.1-.7-1.9-2.1-4.6-5-6.6-2-1.3-3.5-1.6-4.4-1.6s-.7,0-1,.1c-.9.2-1.6.8-1.8,1.6-.2.7.1,1.8,1.4,2.4,1.6.7,2.8,2.5,3,4.8,0,.4.1,2.8-3.4,6.5-2.6,2.7-7,6.1-14.8,10-15.9,7.9-60,18.9-95.7,18.9h-1c-26.5-.2-47.3-3.7-61.9-10.4-3.1-1.5-5.6-3.6-7.3-6-2.6-3.8-3.3-8.5-1.7-13,2.4-6.6,9.5-11.5,12.9-13.7,5.6-3.7,14.1-5,13.7-7.2-.1-.5-.2-1-.6-1.3,0,0-.1,0-.2-.1-.3-.2-.8-.3-1.9-.3s-16.7,2.8-24.8,8.6c-8.4,6-12.9,16.1-12.3,27.5,1,18.7,12.3,43.5,20.7,60.5,15.2,30.7,22,40,26.9,46.7.4.6.8,1.1,1.2,1.7l.8,1.2c4.9,6.7,9.1,12.5,13.1,14,.2,0,22.6,8.1,48.6,8.1h0c1.1,0,2.1,0,3.2,0,27.5-.7,40-10.3,44-14.3,4.8-4.8,7.1-10.7,7.6-12.1,1.1-1.1,6.2-5.7,9.1-8.4,3.5-3.2,12.2-10.2,20.7-16.6l.5-.4c8.9-6.6,23.9-17.8,38.4-31.7,14.6-14,28.7-42.8,32.5-55,3.8-12-2.5-24.1-14.7-28Zm-84.9,124.4l-.9,1.8c-3.6,7.5-8,16.9-12.6,22.4-4.7,5.7-28.6,11.9-46.6,12.1-.3,0-.5,0-.8,0-8.1,0-18.8-1.5-28.7-4-10.4-2.6-16.3-5.5-17.5-7.1-3.6-4.8-23.1-34.8-29.6-47.5-6.5-12.8-19.3-41.9-22.9-53.2-3.1-9.8-3.9-19.3-2.1-26.1.9-3.5,2.8-6.4,4.5-8.5-.5.8-1,1.7-1.5,2.7-3.1,5.5-3.6,14.4,4,22.6,4.9,5.3,16.2,9,24.9,11.1,11,2.7,24.2,4.6,36.3,5.1,2.7.1,5.6.2,8.6.2,24,0,52.7-3.4,73.1-8.7,24.6-6.4,38.1-15.9,42.2-20.5,1.9-2.2,3.2-3.8,4-5.1,0,3-.4,7.3-1,10.7-1.1,6-6.2,24.5-13.4,45.1-7.3,20.7-16.4,39.7-19.8,46.9Zm18.4-16.5c-.3,0-.6,0-.9,0-.5,0-.9,0-1.2-.2,2.2-5.2,12.3-29.5,16.7-45.6,1.1-4.1,2-7.5,2.7-10.5,2.4-9.7,3.4-13.3,7.9-18.3,6.3-6.8,12.8-11.5,18.6-13.5,4.5-1.5,8.1-2.2,11.4-2.2s2.2,0,3.3.2c3,.4,5.1,1.9,6.3,4.2,2.1,4.1,1.3,10.7-1.9,16.8-5.2,9.8-19.7,31.3-28.6,41.3-9.1,10.3-15.3,16.7-22,20.9-6.9,4.4-9.8,6.1-12.2,6.6Zm67.4-59.3c-4.8,9.1-13.8,22.9-23.2,31.9-5.2,5.1-12.5,11.2-20.9,17.8,5.8-5.1,11.1-11.1,17.1-17.7l1.1-1.2c8.4-9.4,15.3-20.3,22-30.9,6.9-10.9,8.7-18.6,6.3-26.4-1.9-6-7.3-9.3-15.2-9.3s-7.1.6-11.3,1.7c-10.4,2.9-17.8,9.3-21.5,13.2.2-3.3.1-5.8-.4-7.6.9-.9,3-2.7,6.6-5,5.1-3.3,10-6.4,18.8-9.3,3.8-1.3,7.5-1.9,10.9-1.9s6.6.6,9.6,1.9c5,2.1,10,7.9,9.8,14.9-.2,6.5-3.7,16.7-9.7,28Z"/><path class="cls-7" d="m477,263.6c1-.3,10.1-2,13.6-2.5,3.4-.4,5-3.3,4.5-4.4,0,0,0,0,0-.1-.7-1-4-.1-8,.5-4,.6-9.1.8-11.9,2.3,0,0,0,0,0,0-2.1,1.1.9,4.5,1.9,4.2Z"/><path class="cls-7" d="m506.8,257.9c1.3,0,6.3-.7,7.6-.6.9,0,1.1-1.2.8-2.1-.2-.4-.5-.7-.9-.8-1.4-.1-6.2.4-7.6.5-.3,0-.5.4-.6.8-.2.9-.1,2.1.7,2.1Z"/><path class="cls-7" d="m526.3,257.2c1.1.1,7.9-.1,9.6,0,1.6,0,1.2-2.2,0-2.6,0,0-.2,0-.3,0-1.3-.1-8.6,0-9.6,0-.2,0-.4.1-.5.3-.4.7-.2,2.3.7,2.4Z"/><path class="cls-4" d="m542.7,294.9c-2.4.4,2.5-3.8,5-8.8,2.5-5,10-15.7,10-15.7,0,0-4.4.6-8.8-1.9s-7.5-6.3-6.3-8.8c1.3-2.5,2.5-5,1.3-6.3-1.3-1.3-5-.6-6.3-3.8-1.3-3.1-2.5-6.9-1.3-6.9s5,0,4.4-1.9c-.6-1.9,0-4.4,0-4.4,0,0-5,0-6.3-3.8-1.3-3.8,2.5-8.8,2.5-11.9s0-7.5.6-7.5,1.9,5.6,3.8,6.9,6.3,2.5,7.5,1.9,1.9,4.4,1.9,6.3-1.3,6.9,1.9,7.5,3.1-.6,3.8-1.3,4.4,5.6,3.8,8.1-1.9,6.9,1.3,8.1c3.1,1.3,5,6.9,5,6.9l8.8-9.4s-8.8.6-11.3-4.4-2.5-8.1-3.1-9.4c-.6-1.3,3.8-1.9,1.9-3.8s-5-3.1-6.3-5c-1.3-1.9,1.9-.6,2.5-1.9.6-1.3-.6-4.4-3.1-6.9s-1.3-6.9,1.3-9.4,2.5-4.4,2.5-6.3.9-1.3,1.7,0,2.1,5,5.2,4.4,3.8-2.5,3.8-1.3,0,8.8,1.9,10,3.8,3.5,3.1,6.1c-.6,2.7-1.3,7-1.3,7,0,0,1.9.6,3.1-.6,1.3-1.3,1.9-1.3,1.9,0s3.8,3.8,3.8,6.9-.6,8.1-.6,8.1l8.8-8.1s-6.3-1.9-6.9-6.3c-.6-4.4,1.9-4.4-1.3-8.1s-1.9-5-1.9-6.3,3.1,2.5,4.4,0c1.3-2.5-2.5-5.6-5-8.8s0-8.1.6-6.9,5,1.9,5.6-1.9c.6-3.8,1.9-5.6,2.5-3.1.6,2.5,1.3,5,3.1,5s3.1-.6,3.8-1.9c.6-1.3,1.9,5,.6,8.8-1.3,3.8-1.9,6.3,0,9.4s4.4,4.4,4.4,6.3-1.3,7.5-1.3,7.5l5.6-4.4s-5.6-5.6-3.1-12.5,2.5-10.7,1.9-13.8,0-3.1.6-1.9,3.1,1.3,5-1.9c1.9-3.1,1.9-5.6,3.8-8.1s2.5-2.5,2.5-.6-.6,7.5,1.9,7.5,4.4-2.5,4.4-1.3-3.8,5.6-3.1,8.1c.6,2.5,1.9,7.5,1.3,10.7s-3.8,7.5-3.8,7.5l4.4-2.5s1.3-7.5,4.4-14.4,6.9-12.5,8.8-13.8,2.4-.7,1.9,1.9c-.6,3.1-1.3,7.5,2.5,6.3,3.8-1.3,5.6-3.8,6.9-4.4s2.5-.6,1.9,1.9c-.6,2.5.6,5,4.4,1.9,3.8-3.1,5.6-4.4,8.1-5s0,3.1,0,5,2.5.7,3.1-1.2c.6-1.9,2.5-3.1,6.3-2.5s8.8,2.5,11.3,1.9,5.6-.6,5.6.6-6.9,2.5-8.8,5l-1.9,2.5s-3.8,6.3-8.1,7.5c-4.4,1.3-6.9-4.4-6.9-1.9s-.6,3.8,1.9,5.6,3.1,3.1-1.9,3.8-5,3.8-5.6,5.6-2.5,1.9-5.6,0c-3.1-1.9-6.3-1.9-3.8,1.3s6.9,3.1,5,5.6-5,5-11.9,2.5-7.5-5.6-11.3-8.1-11.9-1.9-11.9-1.9l-2.5,1.9s5.6-1.3,8.1,1.9,5.6,5,6.9,5-.6,1.9-3.1,2.5,1.3,4.4,6.3,3.8,5.6,1.9,10,4.4,7.5,1.9,10,1.9.6,1.9-5,3.1c-5.6,1.3-7.5,5-11.9,4.4s-7.5-6.9-10-5,0,5.6-7.5,1.3c-7.5-4.4-10.7-6.9-11.9-10-1.3-3.1-1.3-7.5-1.3-7.5,0,0-3.1,2.5-6.3,5s-5.6,5-5.6,5c0,0,5.6-1.3,8.8,1.9,3.1,3.1,3.1,6.3,6.9,6.3s4.4,1.3,3.1,3.1c-1.3,1.9,3.8,6.9,8.1,5.6,4.4-1.3,6.9-3.1,8.8-3.1s-1.3,1.3,1.3,3.1c2.5,1.9,6.3,1.3,10,3.8,3.8,2.5,5.6,3.1,2.5,3.1s-5-.6-7.5,3.1-4.4,5-6.9,2.5-7.5-5.6-13.2-5c-5.6.6-6.9,1.9-6.3,3.1s-1.3,1.3-3.8-.6-3.8-4.4-4.4-6.3-3.8,1.3-10,0c-6.3-1.3-8.1-6.3-8.8-7.5s-.6-2.5-.6-2.5c0,0-4.4,4.4-8.1,8.1-3.8,3.8-6.3,8.1-6.3,8.1,0,0,5-3.8,8.1-2.5,3.1,1.3,5.6,4.4,8.1,5s1.3,1.3,0,1.9,1.9,2.5,4.4,1.9,5.6-.6,8.1,1.9,3.1,2.5,7.5,2.5,3.8,6.3,6.9,7.5c3.1,1.3,1.3,1.3-1.9,1.3s-4.4,2.5-8.8.6-8.8-.6-9.4.6,0,3.1-4.4.6c-4.4-2.5-5-8.1-9.4-8.1s-3.1,1.9-2.5,3.8-1.3,1.3-3.1,0-6.3,0-7.5-4.4c-1.3-4.4-1.3-5-1.3-5,0,0-6.3,8.8-8.1,13.2-1.9,4.4-1.4,6.5-2.5,8.8-1.1,2.3-4.5.2-6.9.6Z"/><path class="cls-4" d="m510.7,293.7c-2,1.3,1.9-5,3.1-17.5,1.3-12.5,2.5-19.4,10-47,7.5-27.6,15-47.6,15-47.6,0,0-8.1,3.8-11.3-1.3s-1.3-11.3-3.1-11.9-2.5-1.3-.6-2.5c1.9-1.3,1.3-3.8-1.3-8.8s-5.6-7.5-10-7.5-5-1.9-3.1-2.5,3.1-3.8.6-6.9c-2.5-3.1-5.6-3.8-6.3-5s1.9-.6,1.9-4.4-.8-5.9-2-8c-1.2-2.1.7-1.4,2.6-.2s9.4,1.9,10,5.6.6,6.9,4.4,8.1,5-1.3,5.6,1.3c.6,2.5,5,5,5.6,10s1.9,11.3,3.1,10c1.3-1.3,1.9-4.4,2.5-3.1s5.6,5,6.3,8.1,0,8.7,0,8.7l8.8-15.6s-7.5,5-11.9-1.9c-4.4-6.9-5-8.1-3.1-8.1s1.3-5-1.9-6.3-6.1-1.4-7.7-4.2.2-5.9-4.2-9c-4.4-3.1-5.6-5-5.6-6.3s3.1,0,3.8-1.9c.6-1.9-2.5-3.8-6.9-6.9-4.4-3.1-1.9-5-1.3-9.4s-1.3-10-3.1-12.5.6-3.1,3.1-1.3,12.5,5,16.3,8.1,3.8,7.5,4.4,10.7-.6,6.3,1.9,5.6,3.8-2.5,4.4.6c.6,3.1,5,6.3,5.6,10.7s-1.3,6.9,1.9,8.8c3.1,1.9,8.1,1.9,8.8,6.9.6,5,0,8.6,0,8.6l7.5-12.4s-6.9-1.9-10.7-6.9c-3.8-5-3.8-6.9-5-8.1-1.3-1.3,1.3-1.3,2.5-2.5,1.3-1.3-.6-5-4.4-8.8-3.8-3.8-2.1-10.6-1.7-14.4s-2.1-6.3-4-8.8.6-2.5,1.9-3.8c1.3-1.3,1.3-8.1,1.3-11.9s-1.5-7.1.8-5.7,2.3,9.5,6.1,10.1,5.6-1.9,5.6,2.5-1.3,11.9,1.9,12.5c3.1.6,6.3,1.7,5.6,9s-2.5,10.4.6,9.8,3.8-3.1,4.4,0,2.5,8.1,2.5,12.5-.6,5.6-.6,5.6l7.5-11.3s-6.9-5-8.1-9.4c-1.3-4.4.6-7.5-1.3-9.4s0-1.9,1.9-2.5,2.5-6.3-1.3-10.7c-3.8-4.4-3.8-5-1.9-7.5,1.9-2.5,4.3-7.7.2-11.7s-.9-5.9-.2-9.6c.6-3.8,0-6.9,1.9-6.9s1.3,4.4,5,6.3,6.9,1.9,6.9,6.9-1.9,6.2,0,7.8c1.9,1.6,3.8.4,3.8,5.4s-3.8,7.5-.6,10.7,5.6,6.3,5.6,10-1.3,8.1-1.3,8.1l6.3-6.3s0-5-3.1-6.3c-3.1-1.3-3.8-5-3.1-8.8s-1.3-6.9-.6-11.9c.6-5,.6-11.3,2.5-18.2,1.9-6.9,4.4-12.5,6.9-13.8s2.5-1.3,2.5,1.3-1.3,5,.6,6.3,3.8,1.9,3.1,5-1.9,5-.6,6.9c1.3,1.9,3.1,3.1,3.1,5.6s-2.5,5-1.9,7.5c.6,2.5,3.8,3.1,3.8,0s-1.3-12.5.6-16.9c1.9-4.4,5-9.4,5.6-13.2s1.9-3.1,2.5-1.3,0,3.5,0,5.2,3.8,2.9,5.6.4c1.9-2.5,2.8-5.4,3.6-7.7s2-2.9,3.9-3.6.6,0,.6,1.9,1.3,4.4,3.8,4.4,4.4-2.5,5.6-5c1.3-2.5,3.1-2.5,5-2.5s-.6,5.6,3.1,5.6,4.7-3.8,6.7-5.6c2-1.9,2.7-2.5,5.2-1.3s6.9-2.5,12.5-1.9,13.8,0,18.2-1.9,5.6-1.9,6.9-.6c1.3,1.3-4.4,1.3-7.5,3.8-3.1,2.5-8.8,10.7-12.5,13.8-3.8,3.1-5.6,3.8-9.4,3.1-3.8-.6-6.3.6-3.8,1.9,2.5,1.3,5.6.6,6.3,2.5s-5,1.3-6.3,4.4c-1.3,3.1-3.1,5-5,5s1.3.6,1.9,3.1-3.8,5-4.4,8.1c-.6,3.1-6.3,1.3-9.4.6s-10-.6-8.1,1.3c1.9,1.9,6.3.6,10,1.9s6.3,1.9,5.6,3.8c-.6,1.9-4.4,1.9-6.9,3.1-2.5,1.3-3.8,2.5-4.4,5.6-.6,3.1-3.8,3.1-6.9,3.8-3.1.6-2.5,1.3,0,2.5,2.5,1.3,4.4,3.8-1.3,5-5.6,1.3-8.8,3.1-16.9,1.9s-14.4-1.9-18.2-1.9-5.6.6-5.6.6l-5.6,6.3,5-2.5c2.5-1.3,6.6-.9,5.8.8-.8,1.7.5,4.8,4.2,3s7.5-3.1,9.4-2.5,0,3.8,1.9,3.1,5.6-1.9,8.1-1.9.6,1.3,1.3,3.1c.6,1.9,4.4-2.5,10.7-.6,6.3,1.9,6.9,3.1,10,3.8s-1.3,1.9-3.1,2.5-2.5,7.5-6.3,8.8c-3.8,1.3-8.1,1.3-11.3,0s-3.8.6-6.3,2.5-7.5.6-11.3-.6c-3.8-1.3-7.8-.7-7.3,2.1s-2.7,3.5-10.2,1.6-10-11.9-10-11.9c0,0-3.8,5.6-6.3,9.4l-5,7.5s5.6-4.4,12.5-1.9c6.9,2.5,11.3,3.8,13.2,3.1s-1.3,2.5,1.3,3.1,2.5-5,8.8-3.8c6.3,1.3,12.5-3.1,20,.6s11.9,3.8,13.8,3.8,3.8,1.3-1.3,2.5-6.9,5-10,6.3c-3.1,1.3-4.4,1.9-4.4,3.8s-3.8,2.5-8.1.6-5.6-1.3-6.9.6,0,3.8-6.3,2.5c-6.3-1.3-8.8-5-11.3-3.1s2.5,5-6.3,5-16.3-.6-19.4-4.4c-3.1-3.8-3.1-7.5-3.1-7.5,0,0-3.8,6.3-6.3,11.3-2.5,5-5,9.4-5,9.4,0,0,5-3.8,10-3.8s6.9,1.3,8.8,1.3-3.1,3.1-1.3,3.8,5.6-5.6,11.9-5.6,10.7,0,12.5,2.5,6.9,3.1,9.4,1.3,4.8.9,8,3c3.3,2,7,1.4,8.3.8s2.5,1.3-.6,2.5-6.3,5.6-5.6,8.1c.6,2.5-2.5,4.2-7.5,2.4-5-1.8-9.4-4.9-11.9-2.4s.6,3.1-5,4.4c-5.6,1.3-10.7,3.1-15,1.3-4.4-1.9-8.8-2.5-8.8-.6s.6,3.8-6.9,2.5c-7.5-1.3-13.8-6.9-13.8-6.9,0,0-8.8,21.3-13.8,42s-9.4,45.1-9.4,54.5,3,12.7,3.1,15c0,2.3-10.5-.6-12.5.6Z"/><path class="cls-7" d="m509.4,285.5s-1.9-4.4-3.8-15.7c-1.9-11.3-5-28.8-5-28.8,0,0,6.9,5,9.4-.6,2.5-5.6,2.5-10.7,5.6-11.3s7.8,1.3,7.8,1.3l4.5-15.8s-6.7-1.7-9.8.2c-3.1,1.9-5,5.6-6.9,6.9s-1.9-4.4-6.9-1.9c-5,2.5-6.9,8.1-6.9,8.1l-5-13.2s4.7,2.3,10.8,1.8,7.5-1.3,8.4-2.8-3.5-1.7-2.9-2.8,1.9-2.4,6.9-2.4,7.5-2.5,8.8-3.8c1.3-1.3-1.3-1.9-.6-4.4.6-2.5,3.8-5,4.4-8.1s-.6-3.1-.6-5,0-3.8-1.9-2.5-6.3,1.9-8.8,1.3-4.4-.6-5.6,2.5-2.5,6.3-3.8,5.6-.6-4.4-2.5-2.5-3.8,2.5-8.1,2.5-6.3,3.1-6.9,5-1.3,5-1.3,5l-5.6-15.7s5,1.9,11.3,0,6.9-3.1,5.6-4.4c-1.3-1.3-1.3-4.4.6-3.8,1.9.6,5.6.6,6.9-3.1,1.3-3.8,1.3-4.4,3.8-4.4s4.4-3.8,5.6-4.4,1-1.3-.3-4-.4-6.1.5-7.3c.9-1.2,0-1.4-1.2-.9s-2.7,1.5-5.2,1-2-1.9-3.5-.2-2.6,2.6-5.6,1.8-6.6,3.1-7.4,5.5-2.3,3.7-2.4,2.2-1.7-1.9-2.1-.3c-.4,1.5-1.8,3.9-4.7,4.4s-4.6,2.7-5.2,4.8c-.6,2.1-.6,5.8-.6,5.8l-9.1-14.7s5.6,2.7,8.5-.6,1.9-5.7,5.5-6.4c3.6-.7,10.3-3.5,8.8-5.2s-3.1-3.8-.6-5.1,7-1.4,7.1-6.5c0-5.1-1.5-8.9,0-12.4s-.9-2.3-2.6-1.3-5,3-8.4,3.3-4.9,1.7-5.6,4c-.7,2.3-2.5,4.3-3.2,2.4-.7-1.9-1.6-3.4-3-1.7s-1.1,5.7-4.4,7.4-5.5,2.3-6.8,6-1,7.2-1,7.2l-6.4-8.7s3.9-6.7,5.1-11.2c1.1-4.5,2.3-6.8,1.4-9-.8-2.3-1.8-4.9-1.6-6.7.2-1.8-1.2-3.4-2.8-1.6s-3.1,3.9-4,1.3c-.9-2.6-1.9-3.9-4.3-4.5s-2.6,1-4.8.7c-2.3-.2-3.4-2.3-3.7-4.2-.3-1.9-3.7-2.4-6-2.9s-2.4,2.8-3.8,2.1.4-3.1-1.4-5.2c-1.9-2.1-3-2-7.5-.9-4.5,1.1-8.1.7-11-.8-2.8-1.5-5.2-3.7-5.6-1.5s-.6,4.8,1.9,6.5c2.5,1.8,7.2,4.8,7,8.5s-2.2,4.4-.2,5.3,4.9-.9,6-1.7c1.1-.8,4.5-.3,5,2.3.5,2.7-5.5,2.3-4.9,4.3.6,2,.8,4.8-1.9,5.4s-2.3,3.8,3.6,4.8c5.9,1,9.5-.3,8.9,2.2-.6,2.5-3.5,6.9,2.6,7.7s6,5.3,10.4,4.5,10.6-1.2,10.6-1.2l2.4,3.1s-7.1-.9-10.3.4-1.2,2.1-.8,3.4c.4,1.3-3.2-.2-6.7.7-3.5.9-1.7,3.4-5.2,3.2s-5.4-1.4-8.3-.2-1.2,4-5.3,5.2.4.6,1.4,1.6,4.7,7.5,9.2,4.5c4.5-3,7.5-1.8,7.7-.5s1.1,2.2,2.9,1.1,4.7.9,7.2-1.5,4-3.8,4.4-1.9-.6,3.4,2.8,3.4,6.6-1.9,7.7-3.7,1.4-2.8,1.4-2.8l4.7,7.3s-8.1-1.4-11.1,2.1-3.1,3.4-1.9,4.2.2,3.1-2,2.5-2.8-3.4-6.5-1.9-2.7,3.5-5.9,4.2-2.9,1-1.8,1.9c1.1,1,2.4,2.7.3,3.2s-4.1,2.7-5.7,4.4c-1.6,1.7-6.4,3.5-4.3,4.3s5.5-.2,7.7,1,6.4,1.9,8.3-.2c1.9-2,4-4.5,5.1-1.9s1.9,3.1,4.4,1.9c2.6-1.2,7.7-1.5,8.9-4.7,1.1-3.1,3.3-6,4.3-4.7s-.3,3.8,1.4,2.6,3.1-1.3,4.3-3.2c1.3-1.9,1.2-3,1.2-3l6.5,16.6s-3.5-3.1-8.1-1.3c-4.5,1.9-6.1,1.4-8.5,1.7s-.7,1.9.3,3.8,0,3.5-4.6,1.9c-4.6-1.6-6.8-1.5-9.5.3s-1.9,2.2-.8,3.4-.4,4.1-2.7,4.9-1.9,3.2-2.9,4.8.4,1.1,2.6,1.4,5.9,3.3,8.8,1.3,5.5-1.4,6.2.3c.7,1.8,1.7,2.5,3.8,1,2.1-1.5,1-6.4,4.2-7.3s5.7-.6,6,1.3.9,4.3,3.1,2.7c2.3-1.6,4.2-3.1,4.9-5,.7-1.9.9-3,.9-3l3.4,9.8s-3.4-1.4-8.5.2-5.6,2.6-4.7,4,.8,3.7-2.3,3.2-4.5,0-8.7-.2c-9.1-.1-13.9,9-13.9,9l8.9,11.7s11.2-.7,13.9-4.1,6.1-3,6.4-.9.9,3.1,3.1,2.2,5.9-1.4,8.1-4.3c2.2-3,1.8-5.2,1.8-5.2,0,0,2.7,14.8,4.7,25.9,1.9,11,1.4,14.9,1.4,17.1s0,3.3,1.5,1.9,5.2-2.6,5.2-2.6Z"/><path class="cls-4" d="m496.2,293.4s-4-2.3-11.8-11.8-14.7-20.5-25-33.7c-10.2-13.2-23.3-29.9-37.9-41.2-14.6-11.3-17.2-15.1-29.4-12.5-12.2,2.6-16.7,13.3-17.8,21.2-1.1,7.9-1.5,21.6,9.4,30.3,11,8.7,20,11,26,9.7,6-1.3,9.8-7.3,9.8-13.5s-4.3-12.6-9.1-15.5c-4.8-2.8-8.3-2.7-10.1.3-1.8,3-.7,6,1,7.9,1.8,1.9,5.5,4.3,7.3,2,1.9-2.3,1.3-4.5.4-6.2s-1.4-.2-1.4,1.5-3.7,1.1-3.1-.8c.6-1.9,1.2-1.8.3-2.9s.4-2.2,1.8-1.7,5.6,2.3,7.9,6.2c2.3,3.9,3.1,7,2.8,9.6s-1.1,4.8-1.1,4.8c0,0,.6-5.3-4.3-7.2-5-1.9-8.8,2.5-8.1,3.4s3.7-.6,4.4,1.2c.7,1.8-1.4,1.8,0,3.1s0,3.3-1.3,4.2-3.1,1-6.6,0-5.3-2.3-5.3-2.3c0,0,6-1.8,5.9-7.3-.2-5.6-3.2-6.4-4.9-7s-4.4.8-3.1,1.9,2.1,2,1.4,3.1-1,.2-.9,2.1-1.6,3.5-3.5,3.1-4.3-2.3-6.6-4.4c-2.3-2.2-3.9-5.5-3.9-5.5,0,0,4.1,2.3,8.7-1.5,4.6-3.8,2.3-7.9,1.3-8.9s-2.2-1.1-2.2,0,.2,2.4-1.4,2.9-1.7-1-3.3,0-4.9.3-5.7-1.1c-.8-1.4-1.3-8.5.9-15.2,2.2-6.7,4.2-8.5,4.2-8.5,0,0-1.8,4.9-.2,9.2s7.1,5.2,10,2.7,2.3-4.3,2.1-5-.6.3-1.7.4-4.7.7-4.6-1.6c0-2.3.6-3.2-.4-5.5-1-2.3,0-3.5,2.3-4.8s6-2.4,10.1-1.9,6.8,2.7,6.8,2.7c0,0-4.2,0-6.4,4.4s-.5,10.6,4.2,11.4,5.9-.7,6.5-2.2c.6-1.4-.8-2.7-1.8-1.7s-3.4-.2-3.4-1.4,1.9-.3,1.6-2.4c-.2-2.1-.2-3,1.5-2.9s2.4-2.6,2.4-2.6c0,0,2.7,1.9,5.6,4.3s6.3,5.3,6.3,5.3c0,0-5.6,0-6.8,4.3-1.3,4.3-1.9,10.4,2.5,11.8,4.3,1.4,5.2-1.5,5.6-2.5s-.6-1.1-1.9-2.1-1.4-2.5-.7-2.7,1.9,1.7,2.9.8,1.7-1.5,2.7-1,1.9-.2,2.3-1.3,0-1.5,0-1.5l4.7,5.1s-5.3,0-7.6,3.7c-2.3,3.7-3.1,12.3,0,14.7,3.1,2.4,6.5,2.5,8.3,1.4s2.7-2.3,1.1-3.2-2.3-1.3-2.3-3,1.6-2.1,2.6-1.1,1.6.5,2.1-1.8c.5-2.3,3.8-1.2,3.8-1.2l6,8.1s-7-.6-9,5.6c-2,6.2.6,10.5,2.7,12.2,2.1,1.7,6.6,1.2,7.5.2s-.2-2-1.8-2.3-1.9-3.3-.7-3.6,1.8-1,2-2.1c.2-1.1,1.1-3.1,2.9-2.8s3.4,1.4,5.4,3.9c2,2.6,8.2,11.3,14.8,21.7,6.6,10.4,11.8,18.8,13,21.3s1.5,3.2,4.5,2.2c3-1,6.4-2.8,6.4-2.8Z"/><path class="cls-7" d="m622.4,183.3s4.2-5.6,12-12.9,22.3-17,36.2-23.6c13.9-6.6,23-11.4,32.6-12.7s18.2,4,20.1,11.8c1.9,7.8-1.4,17.2-7.5,22.6-6,5.5-13.1,12.4-27,12.5-13.9,0-15.3-7.2-13.1-12.2,2.2-5.1,9.3-8.9,13.4-9s5.4,2,5.7,4.4c.3,2.4-2.6,4.5-4.3,4.7s-.9-1.1-.2-1.8-1-2.2-1.9-1.9-.6-2.7-2.7-2.2-4.8,2-6.6,4.8c-1.9,2.7-2.1,6.3-.5,8.1s6.8,2.4,6.8,2.4c0,0-1.3-4.4,1.5-6.2s4.7-1.3,5.5-.5,1.1,1.9,0,2.3-2.3,1.3-1,1.9,0,1.4.6,2,1.8.8,4.5,0,8.9-3.9,8.9-3.9c0,0-5.6,0-6.1-4-.6-3.9,1-5.8,3.5-6.4s4.5,0,3.9,1c-.6,1-2.3,1.5-1.4,2.4s2,0,2.3,1.6.6,3.1,2.1,2.1,5.5-4.8,6.6-6.2,1.6-2.3,1.6-2.3c0,0-3.3,1.1-7.3-1.8s-2.3-8-.2-9.3c2-1.3,1.6.4,2,1.3s1.8,2.2,2.7,1.4,0,3.9,2.8,3.3,3.2-2.3,3.4-5.2c.2-2.8-.5-10.1-5.7-12.7s-7.8-1.9-7.8-1.9c0,0,2.7,3.5,2.5,7.2s-3,7.5-7.2,6.4-1.6-2.7-.2-2.7,2.5-2.1.6-3.5c-1.9-1.4-3.1-1.8-2.4-3.5.7-1.7-.2-3.8-1.9-3.3-1.8.5-4.3,1.1-7.5,2.4-3.1,1.3-5.2,2.5-5.2,2.5,0,0,4.3,1.8,4.3,6.8s-5.4,7.8-7.6,7.7-2.3-2.4-.9-2.7,2.3-3.4.8-4.3-.4-2.7-1.5-3.5-2.4-.7-4.6.2c-2.2,1-7,3.5-8.5,4.3s-4.3,2.3-4.3,2.3c0,0,5.2.1,6.5,4.9,1.4,4.7.9,9.1-3.1,10.4s-7.5-1.5-7.7-3.4,1.6,0,3.4-.6,2.5-1,2.4-3.1-1.4-.6-2.7-1-1.5-1.7-2.3-2.7c-.7-1-1.8-1.4-1.8-1.4,0,0-5.2,3.8-7.1,4.8s-3.8,2.7-3.8,2.7c0,0,7,2.6,8,6.5s-.3,10.8-4.8,11-5.8-2.2-6.3-3.7c-.5-1.5.6-1.8,1.6-1.1s2.7-.2,2.7-1.9-1.2-1.9-3.2-1.9-.2-2.9-.8-4.1-1.9-.8-4.4,1.4c-2.5,2.3-6.8,6.8-9.5,10.2s-4.4,7-4.9,8.4c-.5,1.4-1.2-2.2-3.4-1.8s-.3-4.2-.3-4.2Z"/><path class="cls-7" d="m69.9,243.8c5.1-.9,9.1-1.7,12.7-3.2l-.4-67.8c-3.3-.9-8.3-1.9-12.3-2.4v-8h46.6c21.6,0,35.4,8.7,35.4,24.9s-8.5,21.3-22.3,24.3l18.2,28.8c3.7,1.7,8.5,2.8,12.7,3.5v6h-24.4l-23.1-37h-15.5v27.1c3.5,1.8,8,3.1,13.4,3.9v6h-41v-6Zm27.7-71.9v32.7c-.1,0,17.8,0,17.8,0,16.9,0,20.3-2.2,20.2-15.4,0-14.8-3.3-17.7-19.3-17.6l-18.7.3Z"/><path class="cls-7" d="m165.3,243.8c4.4-.6,7.8-1.3,10.8-2.6l-.3-52.8c-3-.8-7.2-1.5-10.5-2.1v-7.6h65.4l5,22.1-6.7,2.3c-3.6-6-7.2-11.9-11.3-16.1l-27.1.3v22.7c-.1,0,16.4,0,16.4,0,.9-2.6,1.7-5.9,2.3-8.9h6.8l-.3,26.2h-6.4c-.8-3.2-1.4-6.7-2.3-9.5l-16.7-.5-.3,24.9h29.1c4.5-5.1,8.3-10.4,12.3-16.7l6.8,2.1-6,22.1h-67.2v-6Z"/><path class="cls-7" d="m243.5,243.8c4.4-.6,7.8-1.3,10.8-2.6l-.3-52.8c-3-.6-7.2-1.5-10.5-2.1v-7.6h39c26.6,0,41.1,14.1,41.1,36.2s-14.9,34.8-40.4,34.8h-39.7v-6Zm38.6-1.8c21.7,0,25.8-5.6,25.8-24-.3-25-4.2-30.6-26.8-30h-12.3c0,.1-.4,54.2-.4,54.2h13.7Z"/><path class="cls-7" d="m69.9,352.8c5.1-.9,9.1-1.7,12.7-3.2l-.4-67.8c-3.3-.9-8.3-1.9-12.3-2.4v-8h73.4l5.9,26.8-7.1,2.3c-4.1-7.3-8.3-15-12.7-20.3l-31.8.3v32.1c-.1,0,19.8-.1,19.8-.1,1.2-3.5,1.9-8.2,2.6-12.2h7.2l-.4,32.9h-6.7c-.6-4-1.4-8.7-2.6-12.2l-20-.4v28.9c4.2,1.5,10.8,2.8,16.2,3.3v6h-43.8v-6Z"/><path class="cls-7" d="m154.6,352.8c4.4-.6,7.8-1.3,10.8-2.6l-.3-52.8c-3-.8-7.2-1.5-10.5-2.1v-7.6h65.4l5,22.1-6.7,2.3c-3.6-6-7.2-11.9-11.3-16.1l-27.1.3v22.7c-.1,0,16.4,0,16.4,0,.9-2.6,1.7-5.9,2.3-8.9h6.8l-.3,26.2h-6.4c-.8-3.2-1.4-6.7-2.3-9.5l-16.7-.5-.3,24.9h29.1c4.5-5.1,8.3-10.4,12.3-16.7l6.8,2.1-6,22.1h-67.2v-6Z"/><path class="cls-7" d="m233,352.8c4.4-.6,7.8-1.3,10.8-2.6l-.3-52.8c-3-.8-7.2-1.5-10.5-2.1v-7.6h41.1c19.1,0,31.3,7.6,31.3,20.3s-7.1,17.5-18.7,20.2l15.3,22c3.1,1.2,7.1,2.2,10.5,2.6v6h-22.1l-19.9-29.3h-12.5v20.2c3,1.4,6.8,2.4,11.3,3.1v6h-36.3v-6Zm25.2-56v25c-.1,0,14.8,0,14.8,0,14.1,0,16.9-1.7,16.9-11.9-.1-11.2-2.8-13.2-15.9-13.2h-15.8Z"/><path class="cls-7" d="m336.4,299.4l.8,50.3c3.2,1.4,7.1,2.4,11.3,3.1v6h-30.7v-6c4.4-.6,7.6-1.3,10.5-2.6l.5-52.8c-3-.8-7.6-1.5-11-2.1v-7.6h27.7l39.5,56-.6-46.4c-3-.9-6.3-1.5-10.8-2.1v-7.6h28.8v7.6c-2.8.5-6.5,1.3-8.9,2.1l-1,61.4h-13.7l-42.4-59.5Z"/><path class="cls-7" d="m72.4,426.1c0-29.3,19.1-47.3,43-47.3s15.9,2.4,20.9,5.1l1.2-3.6h6.9l6.4,30.7-7.1,2.3c-3.6-7.3-7.2-13.7-11.7-20.2-4.6-2.1-13.9-4.1-21.4-4.1-13.9,0-22,9-21.6,33.8.4,28.6,8.9,37.5,25.8,37.5s27.3-8.2,34.7-14.4l2.6,6.7c-7.3,8.6-22.1,16.7-37,16.7-23.1,0-42.8-16.9-42.8-43.3Z"/><path class="cls-7" d="m153.1,461.8c2.7-.6,5.1-1.3,7.8-2.6,8.9-21.1,18-42,27.5-62.4h14.4c9.6,20.3,18.9,41.2,27.6,62.7,2.6,1.2,5,1.8,7.7,2.3v6h-34.5v-6.3c3.6-.3,7.7-.8,11.3-1.5-2.1-5-4.1-10-6.3-15h-31.7l-5.6,15c3.5.8,7.8,1.3,11.6,1.5v6.3h-29.7v-6Zm27-24.8h25.2c-4.2-9.9-8.6-19.8-13.1-29.5-4.2,9.8-8.2,19.5-12.1,29.5Z"/><path class="cls-7" d="m243.3,461.8c4.4-.6,7.8-1.3,10.8-2.6l-.3-52.8c-3-.8-7.2-1.5-10.5-2.1v-7.6h64.6l5.1,22.1-6.8,2.3c-3.6-6-7.3-11.9-11.3-16l-26.3.3v24.4c-.1,0,16.3-.1,16.3-.1.9-2.7,1.5-6.3,2.2-9.4h6.9l-.4,26.7h-6.4c-.5-3.2-1.3-6.7-2.2-9.4l-16.6-.4-.3,22.2c3.7,1,9.2,1.9,13.9,2.3v6h-38.8v-6Z"/><path class="cls-7" d="m317.2,461.8c4.4-.6,7.8-1.3,10.8-2.6l-.3-52.8c-3-.8-7.2-1.5-10.5-2.1v-7.6h65.4l5,22.1-6.7,2.3c-3.6-6-7.2-11.9-11.3-16l-27.1.3v22.7c-.1,0,16.4,0,16.4,0,.9-2.6,1.7-5.9,2.3-8.9h6.8l-.3,26.2h-6.4c-.8-3.2-1.4-6.7-2.3-9.5l-16.7-.5-.3,24.9h29.1c4.5-5.1,8.3-10.4,12.3-16.7l6.8,2.1-6,22.1h-67.2v-6Z"/><path class="cls-7" d="m80.9,141.6c3.2-.2,5.5-.8,7.3-1.6l-.2-33.6h-8.7c-2.5,3.6-4.4,7.9-6.3,11.7l-3.6-1.1,3.2-14.9h38.3l3.1,14.9-3.4,1.1c-2-3.7-3.9-8.2-6.3-11.7h-8.7c0,.1-.2,33.6-.2,33.6,1.7.7,4.2,1.3,7.3,1.6v2.9h-21.8v-2.9Z"/><path class="cls-7" d="m142.1,141.6c2.2-.3,4.2-.8,5.7-1.5v-11h-18.5v11c1.5.7,3.4,1.2,5.7,1.5v2.9h-17.9v-2.9c2.1-.3,3.8-.6,5.2-1.2v-25.6c-1.4-.4-3.7-.7-5.2-1v-3.7h17.9v3.7c-2.3.3-4.1.9-5.6,1.5v9.9c0,0,18.3,0,18.3,0v-9.9c-1.6-.6-3.4-1.2-5.7-1.5v-3.7h17.9v3.7c-2.2.4-3.7.7-5.1,1.2l-.2,25.4c1.5.6,3.1.9,5.3,1.2v2.9h-17.9v-2.9Z"/><path class="cls-7" d="m163.7,141.6c2.1-.3,3.8-.6,5.2-1.2v-25.6c-1.6-.4-3.6-.7-5.2-1v-3.7h31.8l2.4,10.7-3.2,1.1c-1.7-2.9-3.5-5.8-5.5-7.8h-13.2c0,.1,0,11.2,0,11.2h8.1c.4-1.2.8-2.9,1.1-4.3h3.3v12.7h-3.2c-.4-1.6-.7-3.2-1.1-4.6l-8.1-.2v12.1c-.1,0,14,0,14,0,2.2-2.4,4.1-5,6-8.1l3.3,1-2.9,10.7h-32.6v-2.9Z"/></svg>