<?xml version="1.0" standalone="no"?>
<!DOCTYPE svg PUBLIC "-//W3C//DTD SVG 20010904//EN"
 "http://www.w3.org/TR/2001/REC-SVG-20010904/DTD/svg10.dtd">
<svg version="1.0" xmlns="http://www.w3.org/2000/svg"
 width="462.000000pt" height="462.000000pt" viewBox="0 0 462.000000 462.000000"
 preserveAspectRatio="xMidYMid meet">
<metadata>
Created by potrace 1.14, written by Peter Selinger 2001-2017
</metadata>
<g transform="translate(0.000000,462.000000) scale(0.100000,-0.100000)"
fill="#000000" stroke="none">
<path d="M3740 4598 c-22 -10 -158 -24 -298 -31 -35 -2 -49 -9 -78 -41 -40
-43 -67 -45 -72 -3 -2 16 -9 27 -18 27 -15 0 -64 -46 -64 -61 0 -14 -41 -21
-55 -9 -8 7 -15 24 -15 37 0 24 -1 25 -22 11 -12 -8 -27 -28 -32 -44 -21 -56
-36 -75 -59 -72 -17 2 -23 11 -25 41 -4 43 -19 49 -28 10 -4 -16 -20 -54 -35
-85 -25 -50 -29 -69 -29 -142 0 -87 -8 -108 -30 -81 -10 12 -10 21 -1 41 16
35 14 69 -5 85 -12 10 -15 24 -10 59 5 39 3 50 -14 65 -13 12 -20 31 -20 57 0
44 -8 47 -38 15 -52 -56 -88 -242 -76 -400 7 -84 10 -94 36 -119 35 -33 35
-47 -2 -83 l-29 -28 6 36 c8 50 -2 81 -39 122 -29 34 -30 38 -19 74 16 56 14
77 -11 93 -19 13 -23 25 -23 69 0 51 -1 54 -39 75 -22 13 -46 34 -53 48 -17
33 -33 33 -33 1 0 -14 -5 -44 -12 -68 -10 -40 -9 -47 10 -75 27 -37 27 -52 2
-102 -11 -22 -20 -41 -20 -43 0 -2 14 -21 30 -42 36 -45 39 -87 8 -109 -17
-12 -19 -18 -9 -30 7 -8 12 -23 11 -33 -6 -53 2 -75 39 -112 l39 -39 -32 -48
-31 -48 -7 59 c-9 74 -22 121 -34 118 -5 -1 -17 -5 -28 -9 -18 -7 -18 -3 -12
69 7 68 6 77 -13 96 -12 12 -27 21 -35 21 -20 0 -26 23 -26 91 0 58 0 59 -28
59 -33 0 -55 21 -69 64 -17 54 -28 37 -28 -43 0 -64 -4 -84 -19 -100 -19 -21
-19 -22 4 -53 21 -28 23 -42 21 -108 -2 -74 -1 -78 33 -121 40 -49 44 -64 20
-77 -14 -8 -14 -13 4 -49 22 -43 78 -97 111 -108 28 -8 27 -16 -11 -77 l-33
-53 -5 55 c-5 54 -6 55 -52 78 -45 21 -48 25 -48 60 0 21 -9 56 -21 77 -12 22
-28 52 -36 67 -12 23 -18 26 -33 18 -23 -12 -26 -8 -35 55 -12 84 -25 99 -130
149 -122 58 -131 59 -97 9 13 -21 17 -46 16 -110 l-2 -84 44 -30 c49 -33 56
-54 22 -63 -22 -5 -20 -8 25 -54 26 -26 47 -56 47 -66 0 -31 18 -53 58 -69 53
-21 70 -43 53 -69 -11 -17 -9 -27 16 -67 28 -44 31 -46 76 -46 26 0 47 -2 47
-3 0 -2 -17 -34 -37 -70 l-38 -67 -5 48 c-3 32 -14 59 -33 83 -27 33 -30 34
-43 17 -12 -15 -15 -16 -23 -3 -5 8 -13 35 -16 61 -6 45 -65 145 -78 133 -3
-4 -18 -3 -32 0 -26 7 -38 27 -49 78 -5 21 -17 31 -62 48 -31 11 -58 19 -60
18 -1 -2 3 -22 9 -46 9 -33 9 -47 -1 -63 -11 -18 -11 -23 5 -35 10 -7 21 -14
25 -14 4 0 15 -14 23 -31 15 -28 15 -32 1 -48 -23 -25 -21 -28 22 -36 54 -10
75 -26 102 -84 21 -45 22 -55 11 -73 -10 -16 -10 -22 -1 -28 7 -4 16 -32 21
-61 11 -68 37 -93 89 -85 l36 6 -52 -158 -51 -157 -49 -3 c-41 -3 -55 -9 -86
-40 -30 -28 -41 -33 -50 -24 -22 22 -50 13 -88 -27 l-37 -39 -20 57 -20 56 81
-3 c66 -3 85 -1 95 12 12 14 11 19 -4 30 -23 17 -11 24 52 32 66 9 95 28 87
59 -4 16 1 34 16 54 21 31 25 50 22 105 -2 23 -5 27 -19 20 -10 -4 -43 -9 -73
-10 -30 -1 -58 -3 -61 -3 -3 -1 -14 -19 -24 -41 -18 -40 -35 -52 -35 -25 0 18
-1 18 -36 0 -16 -8 -44 -15 -62 -15 -34 0 -72 -29 -72 -54 0 -36 -20 -21 -36
26 -9 29 -19 59 -22 66 -3 8 10 12 44 13 27 0 65 6 84 13 33 13 37 21 29 56
-3 10 7 16 31 20 28 4 38 12 49 38 8 17 22 32 31 32 9 0 28 13 43 28 25 26 26
31 16 61 -8 23 -8 39 -1 55 10 22 8 22 -44 21 -30 -1 -60 -7 -66 -13 -7 -7
-26 -12 -43 -12 -33 0 -66 -27 -79 -65 -6 -16 -9 -17 -17 -5 -8 13 -12 11 -27
-8 -9 -12 -33 -30 -52 -40 -26 -13 -37 -26 -44 -54 l-9 -38 -38 63 -38 62 35
3 c28 3 40 11 55 37 15 25 33 38 70 50 52 18 70 38 50 58 -18 18 -13 25 29 47
l40 20 0 74 c0 41 3 82 7 92 7 19 12 20 -95 -17 -49 -17 -67 -29 -79 -52 -14
-28 -17 -29 -28 -14 -19 26 -32 20 -45 -18 -8 -24 -24 -41 -51 -57 -31 -17
-42 -31 -52 -66 l-13 -43 -26 37 -27 37 18 36 c39 75 51 138 39 194 -15 67
-22 75 -49 51 -16 -14 -23 -16 -26 -6 -9 25 -36 43 -62 42 -45 -3 -51 -1 -63
25 -12 28 -66 51 -82 35 -15 -15 -26 -12 -26 9 0 34 -24 43 -94 36 -56 -6 -71
-4 -106 14 -22 11 -43 21 -45 21 -3 0 -5 -14 -5 -30 0 -23 11 -41 45 -73 41
-40 44 -46 38 -81 -6 -39 -6 -39 23 -32 54 14 78 12 82 -6 2 -10 -5 -19 -17
-23 -15 -5 -21 -15 -21 -37 0 -21 -6 -31 -20 -35 -46 -12 -5 -46 64 -53 l51
-5 0 -39 c0 -36 3 -40 39 -52 22 -8 47 -21 56 -29 13 -12 35 -15 85 -13 46 2
69 -1 72 -9 3 -8 -13 -13 -49 -15 -43 -2 -53 -6 -52 -20 1 -14 -6 -18 -31 -18
-17 0 -42 -9 -54 -20 -16 -13 -31 -17 -52 -13 -39 8 -77 -4 -84 -26 -3 -10
-15 -23 -28 -29 -14 -7 -16 -11 -7 -11 8 -1 28 -15 44 -32 30 -31 34 -32 94
-7 30 11 35 11 46 -4 16 -22 92 -13 122 14 21 19 21 19 27 -1 8 -31 67 -29
100 4 l25 26 16 -23 c23 -33 20 -38 -22 -38 -44 0 -89 -38 -84 -71 3 -20 -22
-27 -33 -9 -10 16 -50 12 -76 -8 -13 -10 -32 -22 -43 -25 -15 -6 -16 -10 -5
-23 14 -17 18 -12 -66 -79 l-38 -29 49 -13 c71 -18 105 -16 131 8 l22 22 18
-22 c18 -21 19 -21 67 -5 35 12 54 26 68 50 19 33 38 45 38 24 0 -17 29 -11
51 11 11 11 22 19 25 17 2 -2 14 -33 28 -69 l24 -64 -42 -1 c-22 -1 -60 -5
-84 -9 -41 -7 -43 -9 -37 -37 l7 -29 -64 6 c-48 5 -68 3 -83 -8 -16 -12 -17
-17 -7 -30 11 -13 8 -20 -17 -46 -41 -42 -40 -67 2 -75 42 -9 66 -9 101 0 21
5 31 3 38 -10 15 -28 39 -18 55 23 22 56 78 61 95 10 7 -20 48 1 67 33 l19 29
6 -24 c3 -14 9 -32 12 -41 5 -13 -1 -16 -25 -16 -18 0 -47 -7 -66 -14 -27 -12
-34 -20 -32 -38 2 -22 -2 -23 -63 -26 -89 -3 -104 -8 -143 -42 l-33 -29 -105
122 c-109 127 -227 236 -342 315 -63 43 -73 47 -126 45 -144 -3 -226 -91 -238
-257 -12 -150 49 -252 194 -323 122 -60 201 -48 246 38 43 82 -23 211 -120
235 -56 14 -84 -63 -39 -105 35 -33 70 -25 74 17 2 18 -1 32 -7 32 -6 0 -11
-7 -11 -16 0 -9 -6 -14 -12 -11 -12 3 -18 41 -10 59 5 13 58 -19 81 -48 26
-34 46 -97 37 -120 -6 -16 -8 -16 -19 6 -15 29 -57 42 -88 26 -32 -16 -36 -36
-6 -36 20 0 24 -5 25 -35 2 -43 -24 -57 -78 -42 -51 14 -53 17 -25 39 35 28
36 91 0 114 -29 19 -64 12 -46 -9 6 -8 7 -25 2 -43 -12 -47 -49 -44 -101 8
l-43 43 37 6 c46 7 76 35 76 69 0 37 -25 59 -33 30 -5 -18 -12 -21 -54 -18
l-48 3 -3 61 c-2 45 3 76 20 120 l23 59 3 -45 c2 -25 11 -53 19 -62 29 -33
103 -16 103 22 0 15 -7 20 -29 20 -26 0 -29 3 -34 48 -6 53 3 66 63 82 33 9
110 -2 110 -16 0 -3 -12 -15 -27 -28 -33 -29 -37 -84 -8 -116 24 -27 88 -25
93 3 3 12 -3 17 -22 17 -26 0 -35 13 -16 25 5 3 7 12 4 20 -4 9 2 18 12 22 11
3 22 10 25 15 6 9 109 -70 109 -84 0 -4 -6 -8 -14 -8 -25 0 -46 -42 -46 -90 0
-51 13 -70 47 -70 31 0 40 26 18 50 -18 19 -17 20 6 20 13 0 36 6 51 14 19 10
29 11 37 3 18 -18 13 -34 -14 -41 -32 -8 -55 -54 -55 -108 0 -49 6 -60 37 -77
30 -15 58 -14 73 4 11 13 10 18 -5 29 -22 16 -14 49 10 40 8 -4 17 1 21 10 10
27 39 18 67 -21 l27 -38 -32 -11 c-39 -13 -58 -44 -58 -97 0 -45 36 -87 74
-87 33 0 43 18 20 35 -18 13 -18 15 -2 42 27 46 43 51 74 23 28 -27 234 -332
234 -347 0 -6 -50 -20 -110 -33 -61 -12 -127 -31 -148 -42 -20 -11 -57 -27
-82 -37 -25 -10 -52 -21 -61 -25 -11 -5 -19 1 -27 19 -42 92 39 205 192 270
60 26 80 45 58 59 -5 3 -46 -4 -91 -14 -304 -73 -368 -276 -212 -677 120 -308
359 -731 488 -865 41 -42 58 -50 168 -77 143 -34 227 -45 370 -45 274 0 459
75 530 214 30 60 115 138 324 297 389 297 485 399 620 662 106 207 122 285 76
378 -52 103 -165 145 -303 112 -51 -13 -183 -72 -248 -113 l-41 -25 -13 23
c-7 13 -28 32 -46 42 -32 17 -35 17 -51 2 -15 -16 -15 -18 7 -36 37 -30 24
-102 -19 -102 -49 0 -92 23 -116 61 -21 32 -31 39 -56 39 -17 0 -42 9 -56 20
-18 14 -41 20 -75 20 -39 0 -49 3 -45 14 4 10 -11 25 -42 45 -52 33 -71 37
-103 20 l-21 -11 21 28 c11 16 42 50 69 77 l49 47 17 -35 c22 -46 73 -69 133
-60 40 6 44 4 59 -24 20 -40 55 -59 67 -38 4 9 28 19 51 22 47 7 98 -9 144
-45 l27 -21 36 36 c23 23 45 35 63 35 15 0 27 4 27 8 0 12 -51 39 -97 51 -26
7 -43 18 -43 26 0 19 -12 19 -71 -2 -47 -17 -49 -17 -76 3 -17 13 -28 31 -28
45 0 18 -6 25 -26 27 -17 2 -39 18 -58 43 -24 29 -39 39 -61 39 -17 0 -30 4
-30 9 0 5 24 28 52 51 l53 42 7 -43 c9 -50 34 -80 104 -120 53 -30 84 -37 84
-19 0 23 31 20 64 -5 26 -20 43 -26 63 -22 34 6 168 61 156 63 -4 1 -24 5 -44
8 -20 4 -56 20 -80 36 -31 21 -56 30 -85 30 -52 0 -76 23 -43 40 l21 12 -26
17 c-14 10 -32 26 -39 35 -7 10 -29 21 -47 25 -28 7 -31 10 -17 16 34 15 107
-5 145 -39 75 -67 148 -84 193 -46 l24 20 -33 27 c-18 16 -32 31 -32 36 0 11
38 9 45 -3 10 -16 55 -12 55 5 0 23 37 55 65 55 30 0 32 19 5 43 -11 9 -20 21
-20 26 0 17 20 23 35 11 25 -20 62 -2 107 51 24 28 61 61 83 72 l40 22 -35 2
c-19 2 -66 8 -103 15 -68 11 -68 11 -93 -15 -32 -35 -37 -34 -29 3 9 40 -9 39
-64 -1 -46 -33 -77 -33 -66 1 9 27 -7 25 -55 -6 -21 -14 -44 -23 -49 -19 -6 3
-11 24 -11 46 0 21 -4 39 -10 39 -27 0 -105 -147 -130 -246 -6 -23 -17 -45
-25 -48 -18 -7 -18 -7 0 37 11 28 13 47 5 87 -8 41 -7 58 5 80 20 38 19 39
-12 37 -26 -2 -28 1 -33 43 -6 51 -9 48 -53 -40 -16 -33 -28 -45 -44 -44 -19
0 -22 -5 -22 -50 0 -28 -4 -64 -10 -79 -16 -41 -13 -99 5 -125 17 -24 13 -37
-17 -53 -19 -10 -20 -8 -13 25 5 30 2 42 -21 72 -29 38 -30 47 -19 143 7 62 7
63 -14 52 -29 -15 -30 -15 -52 21 l-19 32 -11 -31 c-12 -32 -34 -48 -52 -37
-11 7 -28 -13 -28 -32 0 -6 16 -31 36 -57 36 -46 37 -73 3 -64 -24 6 -26 -28
-4 -57 8 -11 15 -34 15 -52 0 -46 9 -63 41 -80 l29 -14 -39 -35 c-21 -19 -40
-35 -42 -35 -2 0 -3 19 -1 43 3 32 -2 50 -21 75 -15 20 -28 29 -32 23 -3 -6
-12 -11 -20 -11 -11 0 -13 11 -8 50 5 42 2 54 -15 73 -11 12 -23 41 -27 64 -6
40 -8 42 -34 37 -23 -5 -31 -1 -49 28 -18 27 -22 29 -22 12 0 -11 -11 -35 -25
-54 -30 -41 -32 -83 -5 -117 24 -31 25 -52 3 -60 -13 -5 -9 -12 22 -39 33 -27
37 -35 26 -48 -11 -12 -10 -24 4 -65 19 -59 34 -73 86 -80 l39 -6 -40 -45
c-37 -42 -41 -44 -51 -26 -7 11 -23 30 -36 42 -18 16 -23 32 -23 67 0 68 -15
95 -54 93 -29 -1 -31 2 -34 34 -6 89 -11 100 -43 100 -29 0 -60 23 -86 66 -10
16 -12 13 -13 -26 0 -25 -7 -64 -15 -88 -18 -50 -8 -77 31 -92 34 -13 31 -63
-3 -68 -26 -4 -27 -7 -12 -51 7 -21 22 -36 44 -45 33 -14 33 -14 22 -55 -8
-30 -8 -47 -1 -59 18 -28 75 -62 105 -62 34 0 34 -3 13 -38 l-15 -27 -142 -1
c-78 0 -155 -4 -170 -8 l-29 -9 7 59 c23 212 105 571 174 764 55 152 52 148
91 120 33 -23 109 -50 143 -50 11 0 21 9 24 21 5 19 10 20 47 13 106 -20 229
-2 239 36 7 25 33 25 97 0 62 -25 89 -25 96 -2 18 56 30 74 55 89 37 22 37 34
-1 27 -21 -5 -41 1 -74 20 -37 22 -52 25 -91 19 -38 -5 -51 -2 -75 16 -44 32
-154 30 -200 -4 -37 -27 -59 -33 -41 -11 15 17 6 23 -45 31 -24 4 -55 1 -81
-8 -24 -8 -43 -13 -43 -10 0 11 92 173 99 173 3 0 12 -13 18 -29 18 -50 55
-65 165 -69 95 -4 98 -4 98 17 0 29 25 37 63 19 18 -9 47 -19 66 -23 29 -6 36
-4 56 21 22 27 25 28 57 16 54 -19 84 -15 102 13 9 14 20 25 25 25 5 0 32 16
61 35 29 19 58 35 66 35 8 0 14 5 14 10 0 6 -14 10 -31 10 -17 0 -60 12 -95
26 -61 24 -71 25 -175 18 -79 -5 -112 -11 -116 -20 -7 -19 -33 -18 -33 1 0 10
-10 15 -27 15 -16 0 -57 9 -92 20 -51 16 -71 18 -95 10 -16 -5 -31 -9 -32 -7
-2 2 19 36 45 76 l49 73 23 -41 c30 -53 59 -71 125 -78 50 -5 54 -4 54 16 0
31 22 36 100 21 64 -12 70 -12 96 7 23 17 39 20 81 16 76 -8 100 1 123 48 12
23 32 44 48 50 26 10 25 11 -38 36 -51 19 -76 23 -112 18 -39 -5 -48 -3 -48
10 0 17 -21 19 -68 6 -24 -7 -32 -7 -32 4 0 21 -23 24 -65 8 -61 -23 -80 -22
-83 5 -4 25 -38 30 -73 11 -18 -9 -19 -8 -10 9 26 48 15 47 282 26 56 -5 90
-2 132 10 61 18 71 34 35 59 -23 15 -22 15 20 26 33 9 45 19 56 45 11 26 25
38 60 51 25 10 46 23 46 30 0 16 -41 32 -103 41 -26 3 -50 11 -54 17 -4 7 21
8 79 4 l85 -7 28 41 c18 28 25 48 21 65 -4 13 -2 24 3 24 5 0 18 16 29 35 12
19 32 37 46 41 35 8 33 22 -6 32 -52 13 -46 32 9 29 58 -2 76 10 158 105 36
43 70 72 95 82 22 9 40 18 40 21 0 9 -44 4 -70 -7z m-1701 -2027 c11 -7 7 -35
-23 -160 -21 -84 -43 -192 -49 -242 l-11 -90 -31 3 -30 3 -26 148 c-43 242
-44 214 4 213 41 -1 42 -1 62 54 11 30 24 61 28 68 9 14 55 16 76 3z m-224
-293 c12 -68 25 -142 28 -164 l7 -41 -61 -6 c-34 -3 -66 -10 -72 -16 -16 -16
-38 -13 -54 7 -38 48 -183 251 -183 256 0 3 11 6 24 6 34 0 77 17 103 42 24
22 53 18 53 -7 0 -8 7 -15 15 -15 28 0 84 28 97 49 7 11 14 18 16 16 2 -2 14
-59 27 -127z m615 -158 c0 -14 -7 -20 -22 -20 -20 0 -21 1 -3 20 10 11 20 20
22 20 1 0 3 -9 3 -20z m1113 -99 c32 -32 29 -109 -7 -179 -68 -134 -217 -341
-343 -480 -85 -93 -219 -193 -276 -207 l-28 -7 22 53 c83 209 124 327 165 482
41 154 49 171 116 237 91 90 184 132 276 126 38 -2 59 -9 75 -25z"/>
<path d="M1903 2323 c-24 -5 -30 -18 -13 -28 17 -10 80 6 80 21 0 14 -21 16
-67 7z"/>
<path d="M1670 2299 c-91 -15 -100 -18 -100 -39 0 -24 15 -25 109 -9 70 12 91
23 91 45 0 16 -18 16 -100 3z"/>
<path d="M3765 3510 c-95 -31 -341 -155 -450 -227 -111 -74 -275 -230 -275
-262 0 -11 9 -25 21 -31 24 -13 21 -15 43 27 21 42 134 163 152 163 8 0 14 -8
14 -19 0 -10 9 -21 20 -24 11 -3 20 -10 20 -17 0 -7 -9 -14 -20 -17 -25 -7
-26 -29 -1 -43 51 -27 91 5 91 72 0 38 -17 64 -56 86 -10 6 -17 12 -14 15 3 2
26 18 52 36 48 32 48 32 65 11 10 -11 24 -20 31 -20 23 0 8 -35 -16 -38 -44
-6 -15 -42 35 -42 38 0 53 21 53 72 0 37 -13 59 -44 76 -17 9 -10 15 53 47 40
20 79 34 86 31 18 -7 30 -65 16 -79 -18 -18 -13 -27 14 -27 55 0 88 88 49 131
-14 16 -11 19 42 38 65 25 84 22 84 -13 0 -13 7 -26 15 -30 8 -3 15 -12 15
-21 0 -8 -7 -15 -15 -15 -8 0 -15 -7 -15 -15 0 -22 53 -19 73 3 19 21 22 73 7
103 -24 43 72 3 100 -43 22 -37 27 -107 8 -126 -17 -17 -35 -15 -40 6 -3 9
-17 24 -32 32 -24 12 -28 12 -36 0 -26 -40 9 -100 57 -100 33 0 29 -12 -18
-55 l-41 -37 -14 27 c-7 14 -13 32 -11 38 3 18 -39 20 -57 2 -24 -25 -20 -62
10 -82 l26 -17 -44 -17 c-23 -10 -50 -18 -59 -18 -19 -1 -36 32 -20 37 22 7
11 32 -13 32 -30 0 -56 -24 -56 -51 0 -16 -4 -19 -22 -13 -35 10 -48 24 -48
51 0 35 16 61 51 79 29 15 32 14 50 -5 10 -11 19 -25 19 -31 0 -15 16 -12 34
6 35 34 12 74 -41 74 -95 0 -173 -103 -128 -167 36 -52 180 -56 273 -9 200
101 265 308 129 410 -39 29 -143 32 -222 6z"/>
<path d="M2080 2315 c0 -12 13 -15 55 -15 42 0 55 3 55 15 0 12 -13 15 -55 15
-42 0 -55 -3 -55 -15z"/>
<path d="M3046 881 c-15 -6 -4 -11 45 -20 140 -27 225 -132 199 -247 -38 -169
-189 -287 -480 -378 -449 -139 -951 -143 -1363 -10 -216 70 -308 129 -343 220
-45 117 29 239 210 351 81 50 111 82 65 68 -80 -23 -198 -94 -259 -155 -77
-76 -102 -123 -108 -203 -11 -144 93 -265 306 -357 342 -148 845 -181 1281
-84 289 64 495 155 613 271 185 183 177 439 -17 523 -48 21 -123 32 -149 21z"/>
<path d="M2775 798 c-14 -18 -41 -56 -58 -83 l-33 -50 71 3 c38 2 73 7 77 11
3 3 10 39 14 79 l7 72 -26 0 c-16 0 -34 -11 -52 -32z"/>
<path d="M2926 808 c-3 -13 -7 -47 -8 -76 l-3 -53 145 7 c80 4 151 10 157 13
15 8 -46 104 -76 121 -11 5 -63 10 -115 10 -91 0 -96 -1 -100 -22z"/>
<path d="M1273 713 l-58 -48 138 -9 c75 -4 144 -5 152 -2 21 8 18 49 -6 80
-19 24 -26 26 -94 26 -72 0 -74 0 -132 -47z"/>
<path d="M3026 639 c-60 -5 -110 -10 -112 -12 -2 -2 -7 -36 -10 -75 -7 -71 -7
-72 17 -72 48 1 277 27 287 34 10 6 32 90 32 121 0 17 -35 18 -214 4z"/>
<path d="M1174 602 c-20 -20 -28 -80 -15 -122 l11 -38 133 -7 c73 -4 142 -6
153 -3 20 3 41 66 46 138 l3 35 -159 5 c-122 4 -163 2 -172 -8z"/>
<path d="M2660 611 c-42 -5 -124 -36 -147 -56 -7 -5 -20 -96 -14 -99 3 -2 73
2 155 10 157 14 166 17 166 65 0 15 3 41 6 58 l7 31 -59 -1 c-33 -1 -84 -5
-114 -8z"/>
<path d="M1587 528 c-10 -40 -17 -79 -17 -85 0 -10 47 -13 200 -13 l199 0 7
35 c3 20 4 38 2 41 -3 2 -44 11 -92 20 -71 12 -180 41 -267 70 -12 4 -19 -10
-32 -68z"/>
<path d="M2370 519 c-19 -5 -99 -12 -177 -16 l-141 -6 -5 -26 c-3 -14 -2 -29
1 -33 8 -8 354 6 369 15 6 4 13 23 15 42 4 39 0 40 -62 24z"/>
<path d="M3030 444 c-63 -8 -121 -16 -127 -19 -9 -3 -13 -27 -13 -70 l0 -65
68 26 c69 26 176 90 207 124 22 24 31 24 -135 4z"/>
<path d="M2608 406 c-64 -6 -119 -13 -121 -16 -6 -7 -26 -194 -21 -199 10 -10
311 52 325 68 4 3 9 41 13 84 l6 77 -43 -1 c-23 -1 -95 -7 -159 -13z"/>
<path d="M1200 381 c0 -18 81 -65 159 -91 62 -21 73 -23 81 -10 10 16 24 89
18 95 -2 2 -61 7 -131 11 -94 5 -127 4 -127 -5z"/>
<path d="M1554 365 c-33 -106 -31 -129 13 -143 72 -22 334 -65 343 -56 9 9 44
194 38 199 -9 9 -391 9 -394 0z"/>
<path d="M2143 373 c-127 -4 -112 8 -133 -108 -6 -33 -13 -71 -16 -83 l-5 -24
190 4 c109 2 194 7 200 13 5 6 16 54 24 108 l14 97 -81 -2 c-45 -1 -132 -4
-193 -5z"/>
</g>
</svg>
