<svg id="Layer_1" data-name="Layer 1" xmlns="http://www.w3.org/2000/svg" viewBox="0 0 483 527.1"><path d="M303.7,49.1h0m-3.8,3.2L410,146H186L299.9,52.3m0-15.9a7.7,7.7,0,0,0-5.1,1.9L164.2,145.8a8,8,0,0,0,5.1,14.2h257a8,8,0,0,0,5.1-14.1L305.1,38.3a8.3,8.3,0,0,0-5.2-1.9Z" transform="translate(-56 -36.4)"/><path d="M409,454,295.1,547.7,185,454H409m16.7-14h-257a8,8,0,0,0-5.1,14.1L289.9,561.7a8.3,8.3,0,0,0,5.2,1.9,7.7,7.7,0,0,0,5.1-1.9L430.8,454.2a8,8,0,0,0-5.1-14.2Z" transform="translate(-56 -36.4)"/><path d="M532,237H63a7,7,0,0,1,0-14H532a7,7,0,0,1,0,14Z" transform="translate(-56 -36.4)"/><path d="M532,307H63a7,7,0,0,1,0-14H532a7,7,0,0,1,0,14Z" transform="translate(-56 -36.4)"/><path d="M532,377H63a7,7,0,0,1,0-14H532a7,7,0,0,1,0,14Z" transform="translate(-56 -36.4)"/></svg>